<svg xmlns="http://www.w3.org/2000/svg" xmlns:xlink="http://www.w3.org/1999/xlink" width="500" zoomAndPan="magnify" viewBox="0 0 375 374.999991" height="500" preserveAspectRatio="xMidYMid meet" version="1.0"><defs><g/><clipPath id="ea531502b9"><path d="M 94 87.695312 L 281 87.695312 L 281 236.195312 L 94 236.195312 Z M 94 87.695312 " clip-rule="nonzero"/></clipPath><clipPath id="dee3e39104"><path d="M 93.75 87.695312 L 269 87.695312 L 269 225 L 93.75 225 Z M 93.75 87.695312 " clip-rule="nonzero"/></clipPath><clipPath id="f5d608cd6d"><path d="M 119 137 L 126 137 L 126 146 L 119 146 Z M 119 137 " clip-rule="nonzero"/></clipPath><clipPath id="90ef13a84d"><path d="M 90.605469 148.695312 L 134.09375 132.230469 L 150.558594 175.714844 L 107.070312 192.179688 Z M 90.605469 148.695312 " clip-rule="nonzero"/></clipPath><clipPath id="6177c1d5df"><path d="M 90.605469 148.695312 L 134.09375 132.230469 L 150.558594 175.714844 L 107.070312 192.179688 Z M 90.605469 148.695312 " clip-rule="nonzero"/></clipPath><clipPath id="9aaeed27c8"><path d="M 129 144 L 139 144 L 139 150 L 129 150 Z M 129 144 " clip-rule="nonzero"/></clipPath><clipPath id="6bd133ee9c"><path d="M 90.605469 148.695312 L 134.09375 132.230469 L 150.558594 175.714844 L 107.070312 192.179688 Z M 90.605469 148.695312 " clip-rule="nonzero"/></clipPath><clipPath id="2aaa202f95"><path d="M 90.605469 148.695312 L 134.09375 132.230469 L 150.558594 175.714844 L 107.070312 192.179688 Z M 90.605469 148.695312 " clip-rule="nonzero"/></clipPath><clipPath id="f1a275fc60"><path d="M 130 151 L 139 151 L 139 157 L 130 157 Z M 130 151 " clip-rule="nonzero"/></clipPath><clipPath id="42d91e6981"><path d="M 90.605469 148.695312 L 134.09375 132.230469 L 150.558594 175.714844 L 107.070312 192.179688 Z M 90.605469 148.695312 " clip-rule="nonzero"/></clipPath><clipPath id="3b0f097db4"><path d="M 90.605469 148.695312 L 134.09375 132.230469 L 150.558594 175.714844 L 107.070312 192.179688 Z M 90.605469 148.695312 " clip-rule="nonzero"/></clipPath><clipPath id="d150e69c26"><path d="M 113 143 L 122 143 L 122 149 L 113 149 Z M 113 143 " clip-rule="nonzero"/></clipPath><clipPath id="846dc66ac4"><path d="M 90.605469 148.695312 L 134.09375 132.230469 L 150.558594 175.714844 L 107.070312 192.179688 Z M 90.605469 148.695312 " clip-rule="nonzero"/></clipPath><clipPath id="a76900eb20"><path d="M 90.605469 148.695312 L 134.09375 132.230469 L 150.558594 175.714844 L 107.070312 192.179688 Z M 90.605469 148.695312 " clip-rule="nonzero"/></clipPath><clipPath id="66991ea895"><path d="M 126 137 L 133 137 L 133 146 L 126 146 Z M 126 137 " clip-rule="nonzero"/></clipPath><clipPath id="142b6e39b3"><path d="M 90.605469 148.695312 L 134.09375 132.230469 L 150.558594 175.714844 L 107.070312 192.179688 Z M 90.605469 148.695312 " clip-rule="nonzero"/></clipPath><clipPath id="3acc55fe5e"><path d="M 90.605469 148.695312 L 134.09375 132.230469 L 150.558594 175.714844 L 107.070312 192.179688 Z M 90.605469 148.695312 " clip-rule="nonzero"/></clipPath><clipPath id="2bbde24149"><path d="M 99 148 L 129 148 L 129 190 L 99 190 Z M 99 148 " clip-rule="nonzero"/></clipPath><clipPath id="3ac8f75fa9"><path d="M 90.605469 148.695312 L 134.09375 132.230469 L 150.558594 175.714844 L 107.070312 192.179688 Z M 90.605469 148.695312 " clip-rule="nonzero"/></clipPath><clipPath id="7af5edcaec"><path d="M 90.605469 148.695312 L 134.09375 132.230469 L 150.558594 175.714844 L 107.070312 192.179688 Z M 90.605469 148.695312 " clip-rule="nonzero"/></clipPath><clipPath id="83de736cb4"><path d="M 145.503906 104 L 233 104 L 233 185.945312 L 145.503906 185.945312 Z M 145.503906 104 " clip-rule="nonzero"/></clipPath></defs><g clip-path="url(#ea531502b9)"><path fill="#ff5733" d="M 94.214844 195.132812 C 94.898438 200.773438 96.59375 206.0625 99.300781 210.941406 C 103.996094 219.414062 111.324219 225.953125 121.078125 230.378906 C 130.039062 234.445312 140.605469 236.507812 152.46875 236.507812 C 173.355469 236.507812 196.679688 229.953125 218.140625 218.058594 C 241.0625 205.355469 259.667969 187.890625 270.542969 168.882812 C 276.019531 159.304688 279.28125 149.792969 280.230469 140.605469 C 281.257812 130.636719 279.527344 121.515625 275.089844 113.503906 C 270.390625 105.03125 263.0625 98.492188 253.308594 94.066406 C 244.347656 90 233.78125 87.9375 221.917969 87.9375 C 221.636719 87.9375 221.355469 87.9375 221.070312 87.941406 C 240.410156 89.0625 256.015625 96.472656 263.519531 110.007812 C 278.953125 137.851562 254.230469 181.0625 208.300781 206.519531 C 162.367188 231.976562 112.621094 230.046875 97.191406 202.199219 C 95.9375 199.9375 94.945312 197.578125 94.214844 195.132812 Z M 94.214844 195.132812 " fill-opacity="1" fill-rule="nonzero"/></g><g clip-path="url(#dee3e39104)"><path fill="#7e7e7e" d="M 94.214844 195.132812 C 94.945312 197.578125 95.9375 199.9375 97.1875 202.199219 C 112.621094 230.046875 162.367188 231.976562 208.296875 206.519531 C 254.230469 181.0625 278.953125 137.851562 263.515625 110.007812 C 256.015625 96.472656 240.410156 89.0625 221.070312 87.941406 C 216.230469 87.984375 211.273438 88.375 206.238281 89.097656 C 229.097656 87.730469 248.117188 94.695312 256.453125 109.734375 C 270.90625 135.808594 247.753906 176.273438 204.742188 200.109375 C 161.730469 223.949219 115.152344 222.136719 100.699219 196.066406 C 96.40625 188.320312 95.429688 179.308594 97.308594 169.839844 C 95.6875 174.566406 94.636719 179.242188 94.15625 183.839844 C 93.753906 187.738281 93.773438 191.507812 94.214844 195.132812 Z M 94.214844 195.132812 " fill-opacity="1" fill-rule="nonzero"/></g><g clip-path="url(#f5d608cd6d)"><g clip-path="url(#90ef13a84d)"><g clip-path="url(#6177c1d5df)"><path fill="#7e7e7e" d="M 120.875 137.234375 C 120.683594 137.304688 120.515625 137.410156 120.367188 137.550781 C 120.21875 137.691406 120.101562 137.851562 120.019531 138.039062 C 119.9375 138.222656 119.890625 138.417969 119.882812 138.621094 C 119.878906 138.824219 119.910156 139.019531 119.984375 139.210938 L 122.15625 144.949219 C 122.226562 145.140625 122.332031 145.308594 122.472656 145.457031 C 122.613281 145.605469 122.773438 145.722656 122.960938 145.804688 C 123.144531 145.886719 123.339844 145.933594 123.542969 145.9375 C 123.746094 145.945312 123.945312 145.914062 124.132812 145.839844 C 124.324219 145.769531 124.492188 145.664062 124.640625 145.523438 C 124.789062 145.382812 124.90625 145.222656 124.988281 145.035156 C 125.074219 144.851562 125.117188 144.65625 125.125 144.453125 C 125.128906 144.25 125.097656 144.054688 125.023438 143.863281 L 122.851562 138.125 C 122.78125 137.933594 122.675781 137.765625 122.535156 137.617188 C 122.394531 137.46875 122.234375 137.351562 122.046875 137.269531 C 121.863281 137.1875 121.667969 137.140625 121.464844 137.132812 C 121.261719 137.128906 121.066406 137.160156 120.875 137.234375 Z M 120.875 137.234375 " fill-opacity="1" fill-rule="nonzero"/></g></g></g><g clip-path="url(#9aaeed27c8)"><g clip-path="url(#6bd133ee9c)"><g clip-path="url(#2aaa202f95)"><path fill="#7e7e7e" d="M 136.695312 144.363281 L 130.957031 146.539062 C 130.769531 146.609375 130.597656 146.714844 130.449219 146.855469 C 130.300781 146.992188 130.1875 147.15625 130.101562 147.339844 C 130.019531 147.527344 129.972656 147.722656 129.96875 147.925781 C 129.960938 148.128906 129.996094 148.324219 130.066406 148.515625 C 130.140625 148.707031 130.246094 148.875 130.382812 149.023438 C 130.523438 149.171875 130.6875 149.285156 130.871094 149.371094 C 131.054688 149.453125 131.25 149.5 131.453125 149.503906 C 131.65625 149.511719 131.855469 149.476562 132.042969 149.40625 L 137.78125 147.234375 C 137.972656 147.160156 138.140625 147.054688 138.289062 146.917969 C 138.4375 146.777344 138.554688 146.613281 138.636719 146.429688 C 138.722656 146.242188 138.765625 146.050781 138.773438 145.847656 C 138.777344 145.644531 138.746094 145.445312 138.675781 145.257812 C 138.601562 145.066406 138.496094 144.894531 138.355469 144.75 C 138.21875 144.601562 138.054688 144.484375 137.871094 144.402344 C 137.683594 144.316406 137.488281 144.273438 137.285156 144.265625 C 137.082031 144.257812 136.886719 144.292969 136.695312 144.363281 Z M 136.695312 144.363281 " fill-opacity="1" fill-rule="nonzero"/></g></g></g><g clip-path="url(#f1a275fc60)"><g clip-path="url(#42d91e6981)"><g clip-path="url(#3b0f097db4)"><path fill="#7e7e7e" d="M 132.328125 151.421875 C 132.140625 151.339844 131.949219 151.300781 131.746094 151.296875 C 131.546875 151.292969 131.351562 151.328125 131.164062 151.398438 C 130.976562 151.472656 130.8125 151.578125 130.664062 151.714844 C 130.519531 151.855469 130.40625 152.015625 130.320312 152.199219 C 130.238281 152.382812 130.195312 152.574219 130.1875 152.777344 C 130.179688 152.976562 130.210938 153.171875 130.28125 153.359375 C 130.351562 153.550781 130.453125 153.71875 130.589844 153.867188 C 130.726562 154.015625 130.882812 154.132812 131.066406 154.21875 L 136.011719 156.445312 C 136.195312 156.523438 136.386719 156.566406 136.589844 156.570312 C 136.789062 156.574219 136.984375 156.539062 137.171875 156.464844 C 137.359375 156.394531 137.527344 156.289062 137.671875 156.148438 C 137.816406 156.011719 137.933594 155.851562 138.015625 155.667969 C 138.097656 155.484375 138.140625 155.289062 138.148438 155.089844 C 138.15625 154.890625 138.125 154.695312 138.054688 154.503906 C 137.984375 154.316406 137.882812 154.148438 137.746094 154 C 137.613281 153.851562 137.453125 153.734375 137.269531 153.648438 Z M 132.328125 151.421875 " fill-opacity="1" fill-rule="nonzero"/></g></g></g><g clip-path="url(#d150e69c26)"><g clip-path="url(#846dc66ac4)"><g clip-path="url(#a76900eb20)"><path fill="#7e7e7e" d="M 119.199219 148.867188 C 119.382812 148.949219 119.578125 148.988281 119.777344 148.992188 C 119.980469 148.996094 120.171875 148.960938 120.359375 148.890625 C 120.546875 148.816406 120.714844 148.710938 120.859375 148.570312 C 121.007812 148.433594 121.121094 148.273438 121.203125 148.089844 C 121.285156 147.90625 121.332031 147.714844 121.339844 147.511719 C 121.34375 147.3125 121.3125 147.117188 121.246094 146.929688 C 121.175781 146.738281 121.074219 146.570312 120.9375 146.421875 C 120.800781 146.273438 120.640625 146.15625 120.460938 146.070312 L 115.515625 143.84375 C 115.332031 143.765625 115.136719 143.722656 114.9375 143.71875 C 114.734375 143.714844 114.542969 143.75 114.355469 143.824219 C 114.167969 143.894531 114 144 113.855469 144.140625 C 113.707031 144.277344 113.59375 144.4375 113.511719 144.621094 C 113.429688 144.804688 113.382812 144.996094 113.375 145.199219 C 113.371094 145.398438 113.402344 145.59375 113.46875 145.785156 C 113.539062 145.972656 113.644531 146.140625 113.777344 146.289062 C 113.914062 146.4375 114.074219 146.554688 114.253906 146.640625 Z M 119.199219 148.867188 " fill-opacity="1" fill-rule="nonzero"/></g></g></g><g clip-path="url(#66991ea895)"><g clip-path="url(#142b6e39b3)"><g clip-path="url(#3acc55fe5e)"><path fill="#7e7e7e" d="M 128.980469 145.644531 C 129.375 145.496094 129.660156 145.226562 129.835938 144.839844 L 132.0625 139.898438 C 132.152344 139.710938 132.199219 139.515625 132.210938 139.308594 C 132.21875 139.105469 132.1875 138.90625 132.117188 138.710938 C 132.042969 138.519531 131.9375 138.347656 131.796875 138.195312 C 131.660156 138.046875 131.496094 137.929688 131.308594 137.84375 C 131.121094 137.757812 130.921875 137.714844 130.71875 137.710938 C 130.511719 137.703125 130.3125 137.738281 130.121094 137.8125 C 129.929688 137.886719 129.757812 137.996094 129.613281 138.140625 C 129.464844 138.28125 129.347656 138.449219 129.265625 138.636719 L 127.039062 143.582031 C 126.910156 143.863281 126.875 144.15625 126.925781 144.464844 C 126.976562 144.769531 127.109375 145.035156 127.320312 145.261719 C 127.53125 145.488281 127.789062 145.636719 128.09375 145.707031 C 128.394531 145.777344 128.691406 145.753906 128.980469 145.644531 Z M 128.980469 145.644531 " fill-opacity="1" fill-rule="nonzero"/></g></g></g><g clip-path="url(#2bbde24149)"><g clip-path="url(#3ac8f75fa9)"><g clip-path="url(#7af5edcaec)"><path fill="#7e7e7e" d="M 124.777344 148.96875 L 99.886719 169.875 C 99.648438 170.078125 99.484375 170.328125 99.398438 170.632812 C 99.3125 170.933594 99.320312 171.234375 99.417969 171.535156 C 99.515625 171.832031 99.691406 172.078125 99.941406 172.269531 C 100.191406 172.460938 100.472656 172.5625 100.789062 172.582031 L 109 173.042969 L 104.363281 183.328125 C 104.28125 183.511719 104.234375 183.707031 104.230469 183.910156 C 104.222656 184.113281 104.257812 184.308594 104.328125 184.5 C 104.402344 184.691406 104.507812 184.859375 104.644531 185.007812 C 104.785156 185.15625 104.945312 185.273438 105.132812 185.355469 L 113.042969 188.921875 C 113.230469 189 113.421875 189.039062 113.625 189.042969 C 113.828125 189.046875 114.023438 189.011719 114.210938 188.941406 C 114.398438 188.871094 114.566406 188.765625 114.714844 188.628906 C 114.867188 188.492188 114.984375 188.335938 115.070312 188.152344 L 119.707031 177.867188 L 125.492188 183.714844 C 125.707031 183.929688 125.960938 184.070312 126.257812 184.136719 C 126.554688 184.199219 126.84375 184.179688 127.128906 184.074219 L 127.1875 184.050781 C 127.472656 183.925781 127.703125 183.734375 127.871094 183.46875 C 128.042969 183.203125 128.121094 182.917969 128.113281 182.601562 L 127.292969 150.109375 C 127.285156 149.816406 127.199219 149.542969 127.039062 149.300781 C 126.875 149.054688 126.660156 148.871094 126.390625 148.75 C 126.121094 148.628906 125.839844 148.585938 125.550781 148.628906 C 125.257812 148.667969 125 148.78125 124.773438 148.972656 Z M 124.777344 148.96875 " fill-opacity="1" fill-rule="nonzero"/></g></g></g><g clip-path="url(#83de736cb4)"><path fill="#7e7e7e" d="M 181.324219 142.96875 C 181.324219 143.140625 181.292969 143.308594 181.226562 143.46875 C 181.160156 143.628906 181.066406 143.773438 180.941406 143.894531 C 180.820312 144.015625 180.675781 144.113281 180.515625 144.179688 C 180.355469 144.246094 180.1875 144.277344 180.011719 144.277344 L 171.5 144.277344 C 171.324219 144.277344 171.15625 144.246094 170.996094 144.179688 C 170.835938 144.113281 170.695312 144.015625 170.570312 143.894531 C 170.449219 143.773438 170.355469 143.628906 170.285156 143.46875 C 170.21875 143.308594 170.1875 143.140625 170.1875 142.96875 L 170.1875 130.339844 C 170.1875 130.164062 170.21875 129.996094 170.285156 129.835938 C 170.355469 129.675781 170.449219 129.535156 170.570312 129.410156 C 170.695312 129.285156 170.835938 129.191406 170.996094 129.125 C 171.15625 129.058594 171.324219 129.027344 171.5 129.027344 L 180.011719 129.027344 C 180.1875 129.027344 180.355469 129.058594 180.515625 129.125 C 180.675781 129.191406 180.820312 129.285156 180.941406 129.410156 C 181.066406 129.535156 181.160156 129.675781 181.226562 129.835938 C 181.292969 129.996094 181.324219 130.164062 181.324219 130.339844 C 181.324219 130.511719 181.292969 130.679688 181.226562 130.839844 C 181.160156 131 181.066406 131.144531 180.941406 131.265625 C 180.820312 131.390625 180.675781 131.484375 180.515625 131.550781 C 180.355469 131.617188 180.1875 131.652344 180.011719 131.652344 L 172.8125 131.652344 L 172.8125 135.339844 L 178.253906 135.339844 C 178.429688 135.339844 178.597656 135.371094 178.757812 135.4375 C 178.917969 135.507812 179.058594 135.601562 179.183594 135.722656 C 179.304688 135.847656 179.402344 135.988281 179.46875 136.148438 C 179.535156 136.308594 179.566406 136.476562 179.566406 136.652344 C 179.566406 136.824219 179.535156 136.992188 179.46875 137.152344 C 179.402344 137.316406 179.304688 137.457031 179.183594 137.578125 C 179.058594 137.703125 178.917969 137.796875 178.757812 137.863281 C 178.597656 137.929688 178.429688 137.964844 178.253906 137.964844 L 172.8125 137.964844 L 172.8125 141.65625 L 180.011719 141.65625 C 180.1875 141.65625 180.355469 141.6875 180.515625 141.753906 C 180.675781 141.820312 180.820312 141.914062 180.941406 142.039062 C 181.066406 142.160156 181.160156 142.304688 181.226562 142.464844 C 181.292969 142.625 181.328125 142.792969 181.324219 142.96875 Z M 198.359375 135.644531 L 198.359375 137.671875 C 198.359375 138.105469 198.316406 138.535156 198.234375 138.960938 C 198.148438 139.386719 198.023438 139.800781 197.855469 140.203125 C 197.6875 140.601562 197.484375 140.984375 197.246094 141.34375 C 197.003906 141.703125 196.730469 142.039062 196.421875 142.34375 C 196.113281 142.652344 195.78125 142.925781 195.421875 143.167969 C 195.058594 143.40625 194.679688 143.613281 194.277344 143.777344 C 193.878906 143.945312 193.464844 144.070312 193.039062 144.15625 C 192.613281 144.238281 192.183594 144.28125 191.75 144.28125 L 187.355469 144.28125 C 187.183594 144.28125 187.015625 144.25 186.855469 144.183594 C 186.695312 144.117188 186.550781 144.023438 186.429688 143.898438 C 186.304688 143.777344 186.210938 143.632812 186.144531 143.472656 C 186.078125 143.3125 186.042969 143.144531 186.042969 142.972656 L 186.042969 130.339844 C 186.042969 130.164062 186.078125 129.996094 186.144531 129.835938 C 186.210938 129.675781 186.304688 129.535156 186.429688 129.410156 C 186.550781 129.285156 186.695312 129.191406 186.855469 129.125 C 187.015625 129.058594 187.183594 129.027344 187.355469 129.027344 L 191.75 129.027344 C 192.183594 129.027344 192.613281 129.070312 193.039062 129.152344 C 193.464844 129.238281 193.878906 129.363281 194.28125 129.53125 C 194.679688 129.699219 195.0625 129.902344 195.421875 130.144531 C 195.785156 130.382812 196.117188 130.660156 196.425781 130.964844 C 196.730469 131.273438 197.003906 131.609375 197.246094 131.96875 C 197.488281 132.328125 197.691406 132.710938 197.859375 133.113281 C 198.023438 133.511719 198.148438 133.925781 198.234375 134.351562 C 198.320312 134.777344 198.359375 135.207031 198.359375 135.644531 Z M 195.738281 135.644531 C 195.734375 135.382812 195.710938 135.121094 195.660156 134.867188 C 195.609375 134.609375 195.53125 134.359375 195.433594 134.117188 C 195.332031 133.875 195.207031 133.644531 195.0625 133.429688 C 194.917969 133.210938 194.753906 133.007812 194.566406 132.824219 C 194.382812 132.640625 194.179688 132.472656 193.964844 132.328125 C 193.746094 132.183594 193.515625 132.058594 193.273438 131.960938 C 193.03125 131.859375 192.785156 131.785156 192.527344 131.734375 C 192.269531 131.683594 192.011719 131.65625 191.75 131.65625 L 188.667969 131.65625 L 188.667969 141.65625 L 191.75 141.65625 C 192.011719 141.65625 192.269531 141.632812 192.527344 141.582031 C 192.785156 141.53125 193.03125 141.453125 193.273438 141.351562 C 193.515625 141.253906 193.746094 141.128906 193.964844 140.984375 C 194.179688 140.839844 194.382812 140.675781 194.566406 140.488281 C 194.753906 140.304688 194.917969 140.101562 195.0625 139.886719 C 195.207031 139.667969 195.332031 139.4375 195.429688 139.195312 C 195.53125 138.953125 195.609375 138.707031 195.660156 138.449219 C 195.710938 138.191406 195.734375 137.933594 195.738281 137.671875 Z M 213.78125 140.328125 L 213.78125 130.339844 C 213.78125 130.164062 213.746094 129.996094 213.679688 129.835938 C 213.613281 129.675781 213.519531 129.535156 213.394531 129.410156 C 213.273438 129.285156 213.132812 129.191406 212.96875 129.125 C 212.808594 129.058594 212.640625 129.027344 212.46875 129.027344 C 212.292969 129.027344 212.125 129.058594 211.964844 129.125 C 211.804688 129.191406 211.664062 129.285156 211.539062 129.410156 C 211.417969 129.535156 211.320312 129.675781 211.253906 129.835938 C 211.1875 129.996094 211.15625 130.164062 211.15625 130.339844 L 211.15625 140.328125 C 211.15625 140.503906 211.121094 140.671875 211.054688 140.835938 C 210.988281 140.996094 210.890625 141.140625 210.765625 141.265625 C 210.644531 141.390625 210.5 141.484375 210.335938 141.550781 C 210.175781 141.617188 210.007812 141.652344 209.832031 141.652344 L 205.414062 141.652344 C 205.238281 141.652344 205.066406 141.621094 204.90625 141.550781 C 204.742188 141.484375 204.601562 141.390625 204.476562 141.265625 C 204.351562 141.140625 204.253906 140.996094 204.1875 140.835938 C 204.121094 140.671875 204.085938 140.503906 204.085938 140.328125 L 204.085938 130.339844 C 204.085938 130.164062 204.054688 129.996094 203.988281 129.835938 C 203.921875 129.675781 203.824219 129.535156 203.703125 129.410156 C 203.578125 129.285156 203.4375 129.191406 203.277344 129.125 C 203.117188 129.058594 202.949219 129.027344 202.773438 129.027344 C 202.601562 129.027344 202.433594 129.058594 202.273438 129.125 C 202.113281 129.191406 201.96875 129.285156 201.847656 129.410156 C 201.722656 129.535156 201.628906 129.675781 201.5625 129.835938 C 201.496094 129.996094 201.460938 130.164062 201.460938 130.339844 L 201.460938 140.328125 C 201.460938 140.851562 201.5625 141.355469 201.765625 141.839844 C 201.964844 142.324219 202.25 142.75 202.621094 143.121094 C 202.992188 143.492188 203.417969 143.777344 203.902344 143.976562 C 204.386719 144.175781 204.890625 144.277344 205.414062 144.277344 L 209.828125 144.277344 C 210.351562 144.277344 210.855469 144.175781 211.339844 143.976562 C 211.824219 143.777344 212.25 143.492188 212.621094 143.121094 C 212.992188 142.75 213.277344 142.324219 213.476562 141.839844 C 213.679688 141.355469 213.78125 140.851562 213.78125 140.328125 Z M 165.867188 141.214844 C 165.625 141.214844 165.386719 141.261719 165.160156 141.355469 C 164.933594 141.449219 164.734375 141.582031 164.558594 141.753906 C 164.386719 141.929688 164.253906 142.128906 164.160156 142.355469 C 164.066406 142.582031 164.019531 142.820312 164.019531 143.066406 C 164.019531 143.3125 164.066406 143.546875 164.160156 143.773438 C 164.253906 144 164.386719 144.199219 164.5625 144.375 C 164.734375 144.546875 164.9375 144.679688 165.164062 144.773438 C 165.390625 144.867188 165.625 144.914062 165.871094 144.914062 C 166.117188 144.914062 166.355469 144.867188 166.582031 144.773438 C 166.808594 144.675781 167.007812 144.542969 167.179688 144.367188 C 167.351562 144.195312 167.488281 143.996094 167.582031 143.765625 C 167.671875 143.539062 167.71875 143.304688 167.71875 143.058594 C 167.71875 142.8125 167.671875 142.578125 167.578125 142.351562 C 167.484375 142.125 167.347656 141.925781 167.175781 141.753906 C 167 141.582031 166.800781 141.445312 166.574219 141.355469 C 166.347656 141.261719 166.113281 141.214844 165.867188 141.214844 Z M 217.019531 160.609375 L 220.054688 163.84375 C 220.167969 163.964844 220.257812 164.101562 220.316406 164.257812 C 220.378906 164.414062 220.410156 164.574219 220.410156 164.742188 C 220.410156 164.910156 220.378906 165.070312 220.316406 165.226562 C 220.257812 165.378906 220.167969 165.519531 220.054688 165.640625 L 215.246094 170.761719 C 215.121094 170.894531 214.976562 170.996094 214.8125 171.066406 C 214.644531 171.140625 214.472656 171.175781 214.289062 171.175781 C 214.109375 171.175781 213.933594 171.140625 213.769531 171.066406 C 213.601562 170.996094 213.457031 170.894531 213.332031 170.761719 L 210.902344 168.171875 L 210.902344 184.472656 C 210.902344 184.644531 210.871094 184.8125 210.804688 184.972656 C 210.738281 185.136719 210.644531 185.277344 210.519531 185.398438 C 210.398438 185.523438 210.253906 185.617188 210.09375 185.683594 C 209.933594 185.75 209.765625 185.785156 209.589844 185.785156 L 199.609375 185.785156 C 199.433594 185.785156 199.265625 185.75 199.105469 185.683594 C 198.945312 185.617188 198.804688 185.523438 198.679688 185.398438 C 198.558594 185.277344 198.460938 185.136719 198.394531 184.972656 C 198.328125 184.8125 198.296875 184.644531 198.296875 184.472656 L 198.296875 168.175781 L 195.867188 170.761719 C 195.605469 171.039062 195.289062 171.175781 194.910156 171.175781 C 194.730469 171.175781 194.554688 171.140625 194.390625 171.070312 C 194.226562 170.996094 194.078125 170.894531 193.953125 170.761719 L 189.148438 165.640625 C 189.03125 165.519531 188.945312 165.382812 188.882812 165.226562 C 188.820312 165.070312 188.792969 164.910156 188.792969 164.742188 C 188.792969 164.578125 188.820312 164.414062 188.882812 164.261719 C 188.945312 164.105469 189.03125 163.964844 189.148438 163.84375 L 192.117188 160.679688 L 179.605469 160.679688 L 179.605469 165.574219 L 182.035156 162.988281 C 182.160156 162.855469 182.304688 162.753906 182.472656 162.683594 C 182.636719 162.609375 182.8125 162.574219 182.992188 162.574219 C 183.175781 162.574219 183.347656 162.609375 183.515625 162.683594 C 183.679688 162.753906 183.824219 162.855469 183.949219 162.988281 L 188.757812 168.109375 C 188.871094 168.230469 188.960938 168.371094 189.019531 168.523438 C 189.082031 168.679688 189.113281 168.839844 189.113281 169.007812 C 189.113281 169.175781 189.082031 169.335938 189.019531 169.492188 C 188.960938 169.644531 188.871094 169.785156 188.757812 169.90625 L 179.273438 180.011719 L 174.269531 185.34375 C 174.273438 185.347656 174.273438 185.351562 174.269531 185.351562 C 174.261719 185.363281 174.253906 185.371094 174.246094 185.378906 L 174.21875 185.402344 L 174.179688 185.4375 C 174.054688 185.546875 173.910156 185.632812 173.753906 185.6875 C 173.59375 185.742188 173.429688 185.765625 173.265625 185.757812 C 173.097656 185.753906 172.9375 185.714844 172.785156 185.644531 C 172.628906 185.578125 172.496094 185.484375 172.378906 185.363281 L 172.335938 185.316406 L 167.558594 180.226562 L 167.355469 180.015625 L 157.871094 169.910156 C 157.757812 169.785156 157.667969 169.648438 157.609375 169.492188 C 157.546875 169.335938 157.515625 169.175781 157.515625 169.007812 C 157.515625 168.84375 157.546875 168.683594 157.609375 168.527344 C 157.667969 168.371094 157.757812 168.234375 157.871094 168.109375 L 162.683594 162.988281 C 162.804688 162.855469 162.949219 162.753906 163.117188 162.683594 C 163.285156 162.613281 163.457031 162.574219 163.636719 162.574219 C 163.820312 162.574219 163.992188 162.613281 164.160156 162.683594 C 164.324219 162.753906 164.46875 162.855469 164.59375 162.988281 L 167.023438 165.574219 L 167.023438 160.679688 L 158.765625 160.679688 C 157.960938 160.683594 157.164062 160.613281 156.371094 160.464844 C 155.578125 160.320312 154.808594 160.101562 154.058594 159.808594 C 153.304688 159.515625 152.589844 159.15625 151.90625 158.726562 C 151.226562 158.300781 150.589844 157.8125 150 157.261719 C 149.410156 156.714844 148.875 156.117188 148.398438 155.46875 C 147.921875 154.816406 147.511719 154.128906 147.164062 153.402344 C 146.820312 152.675781 146.542969 151.921875 146.339844 151.140625 C 146.136719 150.363281 146.007812 149.570312 145.953125 148.769531 C 145.902344 147.964844 145.921875 147.164062 146.019531 146.363281 C 146.121094 145.5625 146.292969 144.78125 146.539062 144.011719 C 146.785156 143.246094 147.101562 142.511719 147.488281 141.804688 C 147.871094 141.097656 148.320312 140.429688 148.832031 139.808594 C 149.34375 139.1875 149.910156 138.617188 150.53125 138.105469 C 151.148438 137.589844 151.8125 137.136719 152.515625 136.746094 C 153.222656 136.359375 153.957031 136.039062 154.722656 135.789062 C 155.488281 135.535156 156.269531 135.359375 157.066406 135.257812 C 157.085938 134.574219 157.148438 133.890625 157.246094 133.210938 C 157.347656 132.53125 157.488281 131.863281 157.671875 131.199219 C 157.851562 130.539062 158.070312 129.890625 158.332031 129.253906 C 158.589844 128.621094 158.886719 128 159.21875 127.402344 C 159.554688 126.800781 159.921875 126.226562 160.324219 125.667969 C 160.726562 125.113281 161.160156 124.585938 161.628906 124.082031 C 162.09375 123.578125 162.589844 123.105469 163.113281 122.660156 C 163.636719 122.21875 164.183594 121.804688 164.757812 121.429688 C 165.328125 121.050781 165.921875 120.707031 166.535156 120.402344 C 167.152344 120.09375 167.78125 119.824219 168.425781 119.59375 C 169.074219 119.363281 169.730469 119.171875 170.398438 119.019531 C 171.070312 118.867188 171.746094 118.757812 172.425781 118.6875 C 173.109375 118.617188 173.792969 118.585938 174.480469 118.597656 C 175.167969 118.609375 175.847656 118.664062 176.527344 118.757812 C 177.207031 118.851562 177.878906 118.984375 178.542969 119.160156 C 179.207031 119.332031 179.859375 119.546875 180.496094 119.800781 C 180.699219 119.160156 180.929688 118.53125 181.191406 117.914062 C 181.449219 117.296875 181.738281 116.695312 182.054688 116.101562 C 182.371094 115.511719 182.714844 114.9375 183.082031 114.378906 C 183.453125 113.820312 183.847656 113.277344 184.265625 112.753906 C 184.683594 112.234375 185.128906 111.730469 185.59375 111.25 C 186.058594 110.765625 186.542969 110.308594 187.050781 109.871094 C 187.558594 109.433594 188.085938 109.019531 188.632812 108.632812 C 189.179688 108.242188 189.742188 107.882812 190.320312 107.542969 C 190.902344 107.207031 191.496094 106.898438 192.101562 106.617188 C 192.710938 106.335938 193.332031 106.082031 193.960938 105.859375 C 194.59375 105.632812 195.234375 105.4375 195.882812 105.273438 C 196.53125 105.109375 197.1875 104.972656 197.847656 104.867188 C 198.511719 104.765625 199.175781 104.691406 199.84375 104.648438 C 200.511719 104.601562 201.183594 104.589844 201.851562 104.609375 C 202.523438 104.628906 203.1875 104.675781 203.855469 104.757812 C 204.519531 104.835938 205.179688 104.945312 205.835938 105.085938 C 206.488281 105.230469 207.136719 105.398438 207.777344 105.601562 C 208.414062 105.800781 209.042969 106.03125 209.664062 106.289062 C 210.28125 106.546875 210.886719 106.835938 211.476562 107.148438 C 212.070312 107.464844 212.644531 107.804688 213.203125 108.171875 C 213.765625 108.539062 214.308594 108.933594 214.832031 109.351562 C 215.355469 109.769531 215.859375 110.207031 216.339844 110.671875 C 216.824219 111.136719 217.285156 111.621094 217.722656 112.128906 C 218.160156 112.636719 218.574219 113.160156 218.964844 113.707031 C 219.355469 114.25 219.71875 114.8125 220.058594 115.390625 C 220.394531 115.96875 220.707031 116.5625 220.988281 117.171875 C 221.273438 117.777344 221.527344 118.394531 221.753906 119.027344 C 221.980469 119.65625 222.175781 120.296875 222.34375 120.945312 C 222.511719 121.59375 222.648438 122.25 222.753906 122.910156 C 222.859375 123.574219 222.9375 124.238281 222.980469 124.90625 C 223.027344 125.574219 223.042969 126.246094 223.023438 126.914062 C 223.007812 127.585938 222.960938 128.25 222.882812 128.917969 C 223.695312 129.316406 224.472656 129.777344 225.214844 130.304688 C 225.953125 130.828125 226.644531 131.410156 227.289062 132.046875 C 227.933594 132.6875 228.523438 133.371094 229.054688 134.105469 C 229.589844 134.839844 230.058594 135.609375 230.46875 136.421875 C 230.875 137.230469 231.214844 138.070312 231.484375 138.933594 C 231.757812 139.800781 231.957031 140.679688 232.085938 141.578125 C 232.210938 142.476562 232.265625 143.378906 232.246094 144.285156 C 232.230469 145.191406 232.136719 146.09375 231.972656 146.984375 C 231.808594 147.875 231.570312 148.746094 231.265625 149.601562 C 230.957031 150.453125 230.582031 151.277344 230.144531 152.070312 C 229.703125 152.863281 229.199219 153.613281 228.636719 154.324219 C 228.074219 155.035156 227.457031 155.695312 226.785156 156.308594 C 226.117188 156.917969 225.402344 157.472656 224.640625 157.964844 C 223.878906 158.460938 223.085938 158.890625 222.253906 159.253906 C 221.425781 159.617188 220.570312 159.914062 219.691406 160.140625 C 218.8125 160.367188 217.921875 160.519531 217.019531 160.601562 Z M 179.25 169.789062 C 179.066406 169.984375 178.84375 170.113281 178.582031 170.171875 C 178.320312 170.230469 178.0625 170.210938 177.8125 170.113281 C 177.5625 170.011719 177.359375 169.851562 177.210938 169.628906 C 177.058594 169.40625 176.980469 169.160156 176.980469 168.890625 L 176.980469 150.585938 L 169.632812 150.585938 L 169.632812 168.886719 C 169.632812 169.15625 169.554688 169.402344 169.402344 169.625 C 169.253906 169.847656 169.050781 170.007812 168.800781 170.105469 C 168.550781 170.207031 168.292969 170.226562 168.03125 170.167969 C 167.769531 170.109375 167.546875 169.980469 167.363281 169.785156 L 163.621094 165.800781 L 160.605469 169.007812 L 169.449219 178.425781 L 173.304688 182.53125 L 177.15625 178.425781 L 186 169.007812 L 182.992188 165.800781 Z M 213.125 160.304688 L 208.457031 155.320312 L 204.597656 151.214844 L 200.746094 155.320312 L 196.078125 160.292969 L 191.902344 164.738281 L 194.910156 167.945312 L 198.652344 163.960938 C 198.835938 163.765625 199.058594 163.636719 199.320312 163.578125 C 199.582031 163.519531 199.839844 163.539062 200.089844 163.640625 C 200.339844 163.738281 200.542969 163.898438 200.691406 164.121094 C 200.84375 164.34375 200.921875 164.589844 200.921875 164.859375 L 200.921875 183.160156 L 208.277344 183.160156 L 208.277344 164.859375 C 208.28125 164.589844 208.355469 164.34375 208.507812 164.121094 C 208.65625 163.898438 208.859375 163.738281 209.109375 163.640625 C 209.359375 163.539062 209.617188 163.519531 209.878906 163.578125 C 210.140625 163.636719 210.363281 163.765625 210.546875 163.960938 L 214.296875 167.945312 L 217.308594 164.738281 Z M 229.609375 143.957031 C 229.609375 142.566406 229.410156 141.203125 229.007812 139.871094 C 228.605469 138.539062 228.019531 137.292969 227.25 136.132812 C 226.476562 134.972656 225.554688 133.953125 224.480469 133.066406 C 223.40625 132.183594 222.226562 131.472656 220.941406 130.9375 C 220.660156 130.816406 220.445312 130.625 220.300781 130.355469 C 220.15625 130.089844 220.109375 129.804688 220.160156 129.503906 C 220.328125 128.46875 220.414062 127.425781 220.414062 126.375 C 220.414062 125.75 220.378906 125.125 220.320312 124.5 C 220.257812 123.875 220.164062 123.257812 220.039062 122.644531 C 219.917969 122.027344 219.765625 121.421875 219.582031 120.820312 C 219.398438 120.222656 219.1875 119.632812 218.949219 119.054688 C 218.707031 118.476562 218.441406 117.910156 218.144531 117.355469 C 217.847656 116.804688 217.527344 116.269531 217.179688 115.746094 C 216.828125 115.226562 216.457031 114.722656 216.058594 114.238281 C 215.660156 113.753906 215.242188 113.289062 214.796875 112.847656 C 214.355469 112.40625 213.890625 111.984375 213.40625 111.585938 C 212.921875 111.1875 212.417969 110.816406 211.898438 110.46875 C 211.378906 110.121094 210.839844 109.796875 210.289062 109.5 C 209.734375 109.207031 209.171875 108.9375 208.589844 108.699219 C 208.011719 108.457031 207.421875 108.246094 206.824219 108.0625 C 206.222656 107.878906 205.617188 107.726562 205.003906 107.605469 C 204.386719 107.480469 203.769531 107.390625 203.144531 107.328125 C 202.523438 107.265625 201.898438 107.234375 201.269531 107.234375 C 199.097656 107.222656 196.984375 107.578125 194.933594 108.296875 C 192.882812 109.015625 191.011719 110.058594 189.320312 111.421875 C 187.652344 112.757812 186.25 114.324219 185.105469 116.128906 C 183.964844 117.929688 183.144531 119.867188 182.644531 121.941406 C 182.597656 122.136719 182.511719 122.3125 182.382812 122.46875 C 182.253906 122.625 182.101562 122.742188 181.917969 122.828125 C 181.734375 122.910156 181.542969 122.949219 181.34375 122.945312 C 181.144531 122.941406 180.953125 122.894531 180.773438 122.804688 C 180.222656 122.527344 179.65625 122.28125 179.074219 122.074219 C 178.496094 121.867188 177.902344 121.699219 177.296875 121.566406 C 176.695312 121.433594 176.085938 121.34375 175.472656 121.289062 C 174.855469 121.234375 174.238281 121.222656 173.625 121.246094 C 173.007812 121.269531 172.394531 121.335938 171.785156 121.4375 C 171.175781 121.542969 170.574219 121.683594 169.984375 121.863281 C 169.394531 122.042969 168.816406 122.257812 168.253906 122.511719 C 167.691406 122.765625 167.148438 123.054688 166.621094 123.378906 C 166.09375 123.699219 165.589844 124.054688 165.109375 124.441406 C 164.628906 124.832031 164.175781 125.246094 163.75 125.691406 C 163.320312 126.136719 162.921875 126.609375 162.554688 127.105469 C 162.1875 127.601562 161.851562 128.117188 161.550781 128.65625 C 161.25 129.195312 160.984375 129.75 160.753906 130.324219 C 160.523438 130.898438 160.332031 131.480469 160.175781 132.078125 C 160.019531 132.675781 159.902344 133.28125 159.824219 133.894531 C 159.746094 134.507812 159.707031 135.121094 159.707031 135.738281 C 159.707031 135.996094 159.707031 136.210938 159.722656 136.410156 C 159.730469 136.589844 159.707031 136.757812 159.644531 136.925781 C 159.585938 137.089844 159.496094 137.238281 159.375 137.367188 C 159.257812 137.5 159.117188 137.601562 158.957031 137.671875 C 158.796875 137.746094 158.628906 137.785156 158.453125 137.792969 C 157.800781 137.824219 157.160156 137.917969 156.527344 138.074219 C 155.894531 138.230469 155.28125 138.445312 154.6875 138.71875 C 154.097656 138.992188 153.539062 139.316406 153.011719 139.699219 C 152.480469 140.082031 151.996094 140.511719 151.550781 140.984375 C 151.101562 141.460938 150.707031 141.972656 150.359375 142.527344 C 150.011719 143.078125 149.722656 143.65625 149.488281 144.265625 C 149.253906 144.875 149.078125 145.5 148.964844 146.140625 C 148.847656 146.78125 148.796875 147.429688 148.808594 148.078125 C 148.816406 148.730469 148.890625 149.375 149.023438 150.011719 C 149.160156 150.652344 149.351562 151.269531 149.605469 151.871094 C 149.859375 152.46875 150.167969 153.042969 150.53125 153.582031 C 150.894531 154.121094 151.308594 154.625 151.769531 155.085938 C 152.230469 155.546875 152.730469 155.960938 153.269531 156.324219 C 153.808594 156.6875 154.378906 157 154.976562 157.253906 C 155.578125 157.507812 156.195312 157.703125 156.832031 157.839844 C 157.472656 157.976562 158.117188 158.050781 158.765625 158.0625 L 166.992188 158.0625 L 166.992188 149.265625 C 166.992188 149.09375 167.027344 148.925781 167.09375 148.765625 C 167.160156 148.605469 167.253906 148.460938 167.378906 148.339844 C 167.5 148.214844 167.640625 148.121094 167.804688 148.054688 C 167.964844 147.988281 168.132812 147.953125 168.304688 147.953125 L 178.289062 147.953125 C 178.464844 147.953125 178.628906 147.988281 178.792969 148.054688 C 178.953125 148.121094 179.09375 148.214844 179.21875 148.339844 C 179.339844 148.460938 179.433594 148.605469 179.5 148.765625 C 179.566406 148.925781 179.601562 149.09375 179.601562 149.265625 L 179.601562 158.0625 L 194.574219 158.0625 L 198.628906 153.742188 L 203.632812 148.410156 C 203.636719 148.40625 203.640625 148.402344 203.644531 148.398438 L 203.683594 148.359375 L 203.726562 148.320312 L 203.820312 148.246094 C 204.046875 148.078125 204.304688 147.996094 204.585938 147.996094 C 204.765625 147.996094 204.9375 148.035156 205.105469 148.105469 C 205.265625 148.175781 205.410156 148.273438 205.53125 148.40625 C 205.546875 148.417969 205.558594 148.429688 205.566406 148.441406 L 210.351562 153.53125 L 210.550781 153.746094 L 214.601562 158.058594 L 215.503906 158.058594 C 216.429688 158.054688 217.347656 157.964844 218.257812 157.78125 C 219.164062 157.601562 220.046875 157.332031 220.902344 156.976562 C 221.757812 156.621094 222.570312 156.1875 223.339844 155.671875 C 224.109375 155.15625 224.820312 154.570312 225.472656 153.917969 C 226.128906 153.261719 226.714844 152.550781 227.226562 151.777344 C 227.742188 151.007812 228.175781 150.195312 228.53125 149.339844 C 228.886719 148.484375 229.152344 147.605469 229.335938 146.695312 C 229.515625 145.789062 229.609375 144.871094 229.609375 143.945312 Z M 174.261719 185.34375 C 174.261719 185.347656 174.261719 185.351562 174.261719 185.351562 C 174.253906 185.363281 174.246094 185.371094 174.238281 185.378906 L 174.210938 185.402344 L 174.171875 185.4375 C 174.042969 185.546875 173.902344 185.632812 173.742188 185.6875 C 173.585938 185.742188 173.421875 185.765625 173.253906 185.757812 C 173.089844 185.753906 172.925781 185.714844 172.773438 185.644531 C 172.621094 185.578125 172.488281 185.484375 172.371094 185.363281 C 172.617188 185.632812 172.925781 185.777344 173.292969 185.785156 L 173.335938 185.785156 C 173.710938 185.785156 174.03125 185.648438 174.289062 185.371094 L 179.097656 180.25 C 179.167969 180.179688 179.226562 180.097656 179.273438 180.011719 Z M 173.304688 185.761719 C 172.933594 185.761719 172.621094 185.628906 172.363281 185.363281 L 172.320312 185.316406 L 167.542969 180.226562 L 167.339844 180.015625 C 167.386719 180.101562 167.445312 180.179688 167.515625 180.253906 L 172.320312 185.375 C 172.574219 185.644531 172.886719 185.785156 173.253906 185.789062 L 173.289062 185.789062 C 173.625 185.789062 173.917969 185.671875 174.164062 185.445312 C 173.917969 185.65625 173.628906 185.761719 173.304688 185.761719 Z M 204.613281 147.960938 L 204.578125 147.960938 C 204.546875 147.957031 204.515625 147.957031 204.484375 147.960938 C 204.144531 147.984375 203.855469 148.121094 203.621094 148.367188 L 198.816406 153.492188 C 198.75 153.5625 198.691406 153.640625 198.640625 153.726562 L 203.644531 148.394531 C 203.648438 148.390625 203.652344 148.386719 203.65625 148.382812 L 203.695312 148.34375 L 203.738281 148.304688 L 203.832031 148.230469 C 204.0625 148.0625 204.316406 147.980469 204.597656 147.980469 C 204.777344 147.980469 204.949219 148.019531 205.117188 148.089844 C 205.28125 148.160156 205.421875 148.257812 205.542969 148.390625 C 205.296875 148.113281 204.984375 147.96875 204.613281 147.960938 Z M 203.667969 148.371094 C 203.664062 148.375 203.660156 148.382812 203.65625 148.390625 L 203.675781 148.367188 Z M 203.695312 148.34375 L 203.738281 148.304688 C 203.722656 148.316406 203.707031 148.328125 203.695312 148.34375 Z M 210.390625 153.496094 L 205.582031 148.375 C 205.328125 148.105469 205.015625 147.964844 204.644531 147.960938 L 204.578125 147.960938 C 204.546875 147.957031 204.515625 147.957031 204.484375 147.960938 C 204.242188 147.984375 204.023438 148.074219 203.828125 148.226562 C 204.058594 148.0625 204.316406 147.980469 204.597656 147.980469 C 204.777344 147.980469 204.949219 148.015625 205.113281 148.085938 C 205.277344 148.15625 205.421875 148.257812 205.542969 148.386719 C 205.554688 148.398438 205.566406 148.410156 205.578125 148.425781 L 210.359375 153.515625 L 210.5625 153.726562 C 210.511719 153.644531 210.457031 153.566406 210.390625 153.496094 Z M 210.390625 153.496094 " fill-opacity="1" fill-rule="nonzero"/></g><g fill="#000000" fill-opacity="1"><g transform="translate(66.855469, 305.771114)"><g><path d="M 0.828125 0 L 3.296875 -11.59375 L 7.453125 -11.59375 C 8.109375 -11.59375 8.65625 -11.484375 9.09375 -11.265625 C 9.539062 -11.046875 9.875 -10.738281 10.09375 -10.34375 C 10.3125 -9.957031 10.421875 -9.515625 10.421875 -9.015625 C 10.421875 -8.773438 10.394531 -8.515625 10.34375 -8.234375 C 10.1875 -7.546875 9.867188 -6.96875 9.390625 -6.5 C 8.921875 -6.039062 8.3125 -5.753906 7.5625 -5.640625 L 7.53125 -5.46875 C 7.875 -5.320312 8.128906 -5.085938 8.296875 -4.765625 C 8.460938 -4.453125 8.582031 -3.976562 8.65625 -3.34375 L 9.015625 0 L 7.65625 0 C 7.59375 -0.46875 7.5 -1.253906 7.375 -2.359375 L 7.25 -3.546875 C 7.195312 -3.960938 7.101562 -4.289062 6.96875 -4.53125 C 6.832031 -4.769531 6.632812 -4.941406 6.375 -5.046875 C 6.125 -5.148438 5.785156 -5.203125 5.359375 -5.203125 L 3.296875 -5.203125 L 2.203125 0 Z M 6.359375 -6.359375 C 7.796875 -6.359375 8.65625 -7.019531 8.9375 -8.34375 C 8.976562 -8.582031 9 -8.796875 9 -8.984375 C 9 -9.472656 8.847656 -9.835938 8.546875 -10.078125 C 8.242188 -10.316406 7.804688 -10.4375 7.234375 -10.4375 L 4.40625 -10.4375 L 3.546875 -6.359375 Z M 6.359375 -6.359375 "/></g></g></g><g fill="#000000" fill-opacity="1"><g transform="translate(77.595648, 305.771114)"><g><path d="M 3.65625 -10.4375 C 3.375 -10.4375 3.144531 -10.519531 2.96875 -10.6875 C 2.800781 -10.863281 2.71875 -11.085938 2.71875 -11.359375 C 2.71875 -11.617188 2.800781 -11.832031 2.96875 -12 C 3.144531 -12.175781 3.375 -12.265625 3.65625 -12.265625 C 3.925781 -12.265625 4.144531 -12.175781 4.3125 -12 C 4.488281 -11.832031 4.578125 -11.617188 4.578125 -11.359375 C 4.578125 -11.085938 4.488281 -10.863281 4.3125 -10.6875 C 4.144531 -10.519531 3.925781 -10.4375 3.65625 -10.4375 Z M 0.59375 0 L 2.4375 -8.75 L 3.734375 -8.75 L 1.875 0 Z M 0.59375 0 "/></g></g></g><g fill="#000000" fill-opacity="1"><g transform="translate(81.934561, 305.771114)"><g><path d="M 3.734375 0.171875 C 3.171875 0.171875 2.671875 0.046875 2.234375 -0.203125 C 1.804688 -0.453125 1.46875 -0.828125 1.21875 -1.328125 C 0.96875 -1.828125 0.84375 -2.429688 0.84375 -3.140625 C 0.84375 -3.609375 0.90625 -4.117188 1.03125 -4.671875 C 1.21875 -5.585938 1.53125 -6.363281 1.96875 -7 C 2.40625 -7.632812 2.9375 -8.113281 3.5625 -8.4375 C 4.1875 -8.757812 4.882812 -8.921875 5.65625 -8.921875 C 6.21875 -8.921875 6.722656 -8.800781 7.171875 -8.5625 C 7.617188 -8.320312 7.9375 -7.96875 8.125 -7.5 L 8.296875 -7.53125 L 9.3125 -12.265625 L 10.59375 -12.265625 L 7.984375 0 L 6.703125 0 L 6.96875 -1.28125 L 6.8125 -1.3125 C 6.519531 -0.882812 6.101562 -0.53125 5.5625 -0.25 C 5.03125 0.03125 4.421875 0.171875 3.734375 0.171875 Z M 4.21875 -0.984375 C 4.75 -0.984375 5.238281 -1.097656 5.6875 -1.328125 C 6.144531 -1.566406 6.535156 -1.925781 6.859375 -2.40625 C 7.191406 -2.894531 7.4375 -3.5 7.59375 -4.21875 C 7.695312 -4.695312 7.75 -5.132812 7.75 -5.53125 C 7.75 -6.289062 7.5625 -6.851562 7.1875 -7.21875 C 6.820312 -7.582031 6.316406 -7.765625 5.671875 -7.765625 C 3.910156 -7.765625 2.789062 -6.632812 2.3125 -4.375 C 2.21875 -3.90625 2.171875 -3.488281 2.171875 -3.125 C 2.171875 -2.382812 2.347656 -1.84375 2.703125 -1.5 C 3.066406 -1.15625 3.570312 -0.984375 4.21875 -0.984375 Z M 4.21875 -0.984375 "/></g></g></g><g fill="#000000" fill-opacity="1"><g transform="translate(92.381256, 305.771114)"><g><path d="M 3.65625 -10.4375 C 3.375 -10.4375 3.144531 -10.519531 2.96875 -10.6875 C 2.800781 -10.863281 2.71875 -11.085938 2.71875 -11.359375 C 2.71875 -11.617188 2.800781 -11.832031 2.96875 -12 C 3.144531 -12.175781 3.375 -12.265625 3.65625 -12.265625 C 3.925781 -12.265625 4.144531 -12.175781 4.3125 -12 C 4.488281 -11.832031 4.578125 -11.617188 4.578125 -11.359375 C 4.578125 -11.085938 4.488281 -10.863281 4.3125 -10.6875 C 4.144531 -10.519531 3.925781 -10.4375 3.65625 -10.4375 Z M 0.59375 0 L 2.4375 -8.75 L 3.734375 -8.75 L 1.875 0 Z M 0.59375 0 "/></g></g></g><g fill="#000000" fill-opacity="1"><g transform="translate(96.720169, 305.771114)"><g><path d="M 0.59375 0 L 2.453125 -8.75 L 3.6875 -8.75 L 3.390625 -7.375 L 3.546875 -7.34375 C 4.191406 -8.394531 5.171875 -8.921875 6.484375 -8.921875 C 7.296875 -8.921875 7.925781 -8.707031 8.375 -8.28125 C 8.820312 -7.863281 9.046875 -7.28125 9.046875 -6.53125 C 9.046875 -6.25 9.015625 -5.953125 8.953125 -5.640625 L 7.765625 0 L 6.46875 0 L 7.65625 -5.609375 C 7.707031 -5.847656 7.734375 -6.078125 7.734375 -6.296875 C 7.734375 -6.785156 7.585938 -7.15625 7.296875 -7.40625 C 7.003906 -7.664062 6.570312 -7.796875 6 -7.796875 C 5.238281 -7.796875 4.582031 -7.535156 4.03125 -7.015625 C 3.488281 -6.492188 3.09375 -5.648438 2.84375 -4.484375 L 1.890625 0 Z M 0.59375 0 "/></g></g></g><g fill="#000000" fill-opacity="1"><g transform="translate(106.794045, 305.771114)"><g><path d="M 2.78125 3.71875 C 2.039062 3.71875 1.410156 3.625 0.890625 3.4375 C 0.378906 3.257812 -0.00390625 3.003906 -0.265625 2.671875 C -0.535156 2.335938 -0.671875 1.953125 -0.671875 1.515625 C -0.671875 1.390625 -0.65625 1.226562 -0.625 1.03125 C -0.53125 0.613281 -0.300781 0.265625 0.0625 -0.015625 C 0.4375 -0.296875 0.914062 -0.503906 1.5 -0.640625 L 1.546875 -0.796875 C 1.347656 -0.921875 1.195312 -1.0625 1.09375 -1.21875 C 1 -1.382812 0.953125 -1.582031 0.953125 -1.8125 C 0.953125 -1.9375 0.96875 -2.082031 1 -2.25 C 1.125 -2.84375 1.628906 -3.210938 2.515625 -3.359375 L 2.5625 -3.53125 C 1.914062 -3.914062 1.59375 -4.507812 1.59375 -5.3125 C 1.59375 -5.5625 1.625 -5.835938 1.6875 -6.140625 C 1.800781 -6.671875 2.015625 -7.144531 2.328125 -7.5625 C 2.648438 -7.988281 3.070312 -8.320312 3.59375 -8.5625 C 4.125 -8.800781 4.742188 -8.921875 5.453125 -8.921875 C 6.179688 -8.921875 6.765625 -8.757812 7.203125 -8.4375 C 7.421875 -8.644531 7.601562 -8.863281 7.75 -9.09375 C 7.894531 -9.320312 8.007812 -9.585938 8.09375 -9.890625 L 8.296875 -10 L 9.296875 -9.75 C 9.148438 -9.238281 8.941406 -8.832031 8.671875 -8.53125 C 8.398438 -8.226562 8.050781 -8.003906 7.625 -7.859375 L 7.59375 -7.6875 C 7.90625 -7.382812 8.0625 -6.992188 8.0625 -6.515625 C 8.0625 -6.347656 8.035156 -6.128906 7.984375 -5.859375 C 7.867188 -5.304688 7.628906 -4.8125 7.265625 -4.375 C 6.910156 -3.9375 6.46875 -3.59375 5.9375 -3.34375 C 5.40625 -3.09375 4.820312 -2.96875 4.1875 -2.96875 C 4.113281 -2.96875 3.984375 -2.972656 3.796875 -2.984375 C 3.578125 -2.992188 3.421875 -3 3.328125 -3 C 3.003906 -3 2.742188 -2.910156 2.546875 -2.734375 C 2.347656 -2.566406 2.25 -2.351562 2.25 -2.09375 C 2.25 -1.875 2.332031 -1.703125 2.5 -1.578125 C 2.675781 -1.460938 2.921875 -1.398438 3.234375 -1.390625 L 5.140625 -1.28125 C 5.898438 -1.25 6.472656 -1.066406 6.859375 -0.734375 C 7.253906 -0.410156 7.453125 0.03125 7.453125 0.59375 C 7.453125 0.78125 7.425781 0.976562 7.375 1.1875 C 7.257812 1.738281 7.046875 2.195312 6.734375 2.5625 C 6.421875 2.9375 5.945312 3.222656 5.3125 3.421875 C 4.675781 3.617188 3.832031 3.71875 2.78125 3.71875 Z M 4.421875 -4.078125 C 5.046875 -4.078125 5.5625 -4.238281 5.96875 -4.5625 C 6.375 -4.882812 6.640625 -5.335938 6.765625 -5.921875 C 6.804688 -6.128906 6.828125 -6.3125 6.828125 -6.46875 C 6.828125 -6.90625 6.6875 -7.238281 6.40625 -7.46875 C 6.132812 -7.695312 5.738281 -7.8125 5.21875 -7.8125 C 4.59375 -7.8125 4.082031 -7.644531 3.6875 -7.3125 C 3.289062 -6.988281 3.023438 -6.523438 2.890625 -5.921875 C 2.847656 -5.722656 2.828125 -5.546875 2.828125 -5.390625 C 2.828125 -4.972656 2.960938 -4.648438 3.234375 -4.421875 C 3.503906 -4.191406 3.898438 -4.078125 4.421875 -4.078125 Z M 2.78125 2.609375 C 3.4375 2.609375 4 2.539062 4.46875 2.40625 C 4.945312 2.28125 5.316406 2.109375 5.578125 1.890625 C 5.835938 1.671875 6 1.425781 6.0625 1.15625 C 6.09375 1.039062 6.109375 0.921875 6.109375 0.796875 C 6.109375 0.523438 6.003906 0.320312 5.796875 0.1875 C 5.597656 0.0507812 5.273438 -0.03125 4.828125 -0.0625 L 2.890625 -0.203125 C 2.835938 -0.203125 2.785156 -0.207031 2.734375 -0.21875 C 2.691406 -0.226562 2.644531 -0.234375 2.59375 -0.234375 C 2.019531 -0.222656 1.582031 -0.101562 1.28125 0.125 C 0.976562 0.351562 0.785156 0.671875 0.703125 1.078125 C 0.679688 1.160156 0.671875 1.253906 0.671875 1.359375 C 0.671875 1.753906 0.859375 2.0625 1.234375 2.28125 C 1.617188 2.5 2.132812 2.609375 2.78125 2.609375 Z M 2.78125 2.609375 "/></g></g></g><g fill="#000000" fill-opacity="1"><g transform="translate(115.757414, 305.771114)"><g/></g></g><g fill="#000000" fill-opacity="1"><g transform="translate(119.739372, 305.771114)"><g><path d="M 3.921875 -7.703125 L 2.8125 -2.5 C 2.78125 -2.320312 2.765625 -2.148438 2.765625 -1.984375 C 2.765625 -1.640625 2.851562 -1.382812 3.03125 -1.21875 C 3.21875 -1.0625 3.476562 -0.984375 3.8125 -0.984375 C 4.28125 -0.984375 4.703125 -1.117188 5.078125 -1.390625 L 5.25 -1.390625 L 5.5 -0.453125 C 5.007812 -0.0351562 4.347656 0.171875 3.515625 0.171875 C 2.878906 0.171875 2.375 0 2 -0.34375 C 1.632812 -0.695312 1.453125 -1.179688 1.453125 -1.796875 C 1.453125 -2.035156 1.476562 -2.28125 1.53125 -2.53125 L 2.625 -7.703125 L 1.109375 -7.703125 L 1.328125 -8.765625 L 2.859375 -8.765625 L 3.25 -10.609375 L 4.59375 -10.828125 L 4.15625 -8.765625 L 6.96875 -8.765625 L 6.734375 -7.703125 Z M 3.921875 -7.703125 "/></g></g></g><g fill="#000000" fill-opacity="1"><g transform="translate(126.402408, 305.771114)"><g><path d="M 0.59375 0 L 3.203125 -12.265625 L 4.484375 -12.265625 L 3.484375 -7.5 L 3.640625 -7.46875 C 4.003906 -7.9375 4.421875 -8.296875 4.890625 -8.546875 C 5.359375 -8.796875 5.894531 -8.921875 6.5 -8.921875 C 7.351562 -8.921875 7.992188 -8.707031 8.421875 -8.28125 C 8.847656 -7.863281 9.0625 -7.289062 9.0625 -6.5625 C 9.0625 -6.257812 9.023438 -5.953125 8.953125 -5.640625 L 7.765625 0 L 6.46875 0 L 7.65625 -5.609375 C 7.71875 -5.878906 7.75 -6.117188 7.75 -6.328125 C 7.75 -6.804688 7.609375 -7.171875 7.328125 -7.421875 C 7.054688 -7.671875 6.648438 -7.796875 6.109375 -7.796875 C 5.335938 -7.796875 4.660156 -7.53125 4.078125 -7 C 3.492188 -6.46875 3.082031 -5.628906 2.84375 -4.484375 L 1.890625 0 Z M 0.59375 0 "/></g></g></g><g fill="#000000" fill-opacity="1"><g transform="translate(136.476283, 305.771114)"><g><path d="M 8.53125 -6.140625 C 8.382812 -5.367188 7.953125 -4.742188 7.234375 -4.265625 C 6.523438 -3.796875 5.507812 -3.5625 4.1875 -3.5625 C 3.5625 -3.5625 2.90625 -3.613281 2.21875 -3.71875 C 2.195312 -3.550781 2.1875 -3.375 2.1875 -3.1875 C 2.1875 -2.476562 2.367188 -1.929688 2.734375 -1.546875 C 3.097656 -1.171875 3.625 -0.984375 4.3125 -0.984375 C 4.925781 -0.984375 5.4375 -1.097656 5.84375 -1.328125 C 6.257812 -1.566406 6.628906 -1.925781 6.953125 -2.40625 L 7.125 -2.40625 L 7.921875 -1.875 C 7.546875 -1.195312 7.046875 -0.6875 6.421875 -0.34375 C 5.796875 0 5.015625 0.171875 4.078125 0.171875 C 3.441406 0.171875 2.878906 0.0234375 2.390625 -0.265625 C 1.910156 -0.554688 1.539062 -0.96875 1.28125 -1.5 C 1.019531 -2.039062 0.890625 -2.671875 0.890625 -3.390625 C 0.890625 -3.828125 0.941406 -4.28125 1.046875 -4.75 C 1.234375 -5.632812 1.546875 -6.390625 1.984375 -7.015625 C 2.429688 -7.640625 2.96875 -8.113281 3.59375 -8.4375 C 4.226562 -8.757812 4.929688 -8.921875 5.703125 -8.921875 C 6.335938 -8.921875 6.867188 -8.8125 7.296875 -8.59375 C 7.722656 -8.382812 8.039062 -8.101562 8.25 -7.75 C 8.46875 -7.40625 8.578125 -7.023438 8.578125 -6.609375 C 8.578125 -6.453125 8.5625 -6.296875 8.53125 -6.140625 Z M 5.46875 -7.828125 C 4.695312 -7.828125 4.0625 -7.585938 3.5625 -7.109375 C 3.070312 -6.628906 2.691406 -5.863281 2.421875 -4.8125 C 3.035156 -4.75 3.585938 -4.71875 4.078125 -4.71875 C 5.109375 -4.71875 5.875 -4.847656 6.375 -5.109375 C 6.882812 -5.378906 7.179688 -5.765625 7.265625 -6.265625 C 7.285156 -6.359375 7.296875 -6.453125 7.296875 -6.546875 C 7.296875 -6.929688 7.132812 -7.238281 6.8125 -7.46875 C 6.488281 -7.707031 6.039062 -7.828125 5.46875 -7.828125 Z M 5.46875 -7.828125 "/></g></g></g><g fill="#000000" fill-opacity="1"><g transform="translate(145.804534, 305.771114)"><g/></g></g><g fill="#000000" fill-opacity="1"><g transform="translate(149.786491, 305.771114)"><g><path d="M 4.25 0 L 2.4375 0 L 2.15625 -11.59375 L 3.5 -11.59375 L 3.65625 -2 L 3.84375 -2 L 8.4375 -11.59375 L 9.703125 -11.59375 L 10.3125 -2 L 10.515625 -2 L 14.671875 -11.59375 L 16.046875 -11.59375 L 11.046875 0 L 9.234375 0 L 8.625 -8.78125 L 8.453125 -8.78125 Z M 4.25 0 "/></g></g></g><g fill="#000000" fill-opacity="1"><g transform="translate(164.92904, 305.771114)"><g><path d="M 3.734375 0.171875 C 3.203125 0.171875 2.71875 0.0507812 2.28125 -0.1875 C 1.84375 -0.425781 1.492188 -0.789062 1.234375 -1.28125 C 0.972656 -1.769531 0.84375 -2.378906 0.84375 -3.109375 C 0.84375 -3.585938 0.894531 -4.082031 1 -4.59375 C 1.3125 -6.019531 1.859375 -7.097656 2.640625 -7.828125 C 3.421875 -8.554688 4.425781 -8.921875 5.65625 -8.921875 C 6.21875 -8.921875 6.71875 -8.789062 7.15625 -8.53125 C 7.601562 -8.269531 7.914062 -7.898438 8.09375 -7.421875 L 8.28125 -7.453125 L 8.5625 -8.75 L 9.859375 -8.75 L 7.984375 0 L 6.703125 0 L 6.96875 -1.28125 L 6.8125 -1.3125 C 6.5 -0.832031 6.082031 -0.460938 5.5625 -0.203125 C 5.050781 0.046875 4.441406 0.171875 3.734375 0.171875 Z M 4.21875 -0.984375 C 5.03125 -0.984375 5.738281 -1.265625 6.34375 -1.828125 C 6.957031 -2.390625 7.382812 -3.238281 7.625 -4.375 C 7.707031 -4.757812 7.75 -5.113281 7.75 -5.4375 C 7.75 -6.175781 7.5625 -6.75 7.1875 -7.15625 C 6.8125 -7.5625 6.304688 -7.765625 5.671875 -7.765625 C 3.910156 -7.765625 2.789062 -6.632812 2.3125 -4.375 C 2.238281 -4.019531 2.203125 -3.660156 2.203125 -3.296875 C 2.203125 -2.804688 2.285156 -2.390625 2.453125 -2.046875 C 2.617188 -1.703125 2.851562 -1.4375 3.15625 -1.25 C 3.46875 -1.070312 3.820312 -0.984375 4.21875 -0.984375 Z M 4.21875 -0.984375 "/></g></g></g><g fill="#000000" fill-opacity="1"><g transform="translate(175.375736, 305.771114)"><g><path d="M 4.625 0 L 2.84375 0 L 1.359375 -8.75 L 2.671875 -8.75 L 3.875 -1.46875 L 4.0625 -1.46875 L 8.328125 -8.75 L 9.78125 -8.75 Z M 4.625 0 "/></g></g></g><g fill="#000000" fill-opacity="1"><g transform="translate(184.648468, 305.771114)"><g><path d="M 8.53125 -6.140625 C 8.382812 -5.367188 7.953125 -4.742188 7.234375 -4.265625 C 6.523438 -3.796875 5.507812 -3.5625 4.1875 -3.5625 C 3.5625 -3.5625 2.90625 -3.613281 2.21875 -3.71875 C 2.195312 -3.550781 2.1875 -3.375 2.1875 -3.1875 C 2.1875 -2.476562 2.367188 -1.929688 2.734375 -1.546875 C 3.097656 -1.171875 3.625 -0.984375 4.3125 -0.984375 C 4.925781 -0.984375 5.4375 -1.097656 5.84375 -1.328125 C 6.257812 -1.566406 6.628906 -1.925781 6.953125 -2.40625 L 7.125 -2.40625 L 7.921875 -1.875 C 7.546875 -1.195312 7.046875 -0.6875 6.421875 -0.34375 C 5.796875 0 5.015625 0.171875 4.078125 0.171875 C 3.441406 0.171875 2.878906 0.0234375 2.390625 -0.265625 C 1.910156 -0.554688 1.539062 -0.96875 1.28125 -1.5 C 1.019531 -2.039062 0.890625 -2.671875 0.890625 -3.390625 C 0.890625 -3.828125 0.941406 -4.28125 1.046875 -4.75 C 1.234375 -5.632812 1.546875 -6.390625 1.984375 -7.015625 C 2.429688 -7.640625 2.96875 -8.113281 3.59375 -8.4375 C 4.226562 -8.757812 4.929688 -8.921875 5.703125 -8.921875 C 6.335938 -8.921875 6.867188 -8.8125 7.296875 -8.59375 C 7.722656 -8.382812 8.039062 -8.101562 8.25 -7.75 C 8.46875 -7.40625 8.578125 -7.023438 8.578125 -6.609375 C 8.578125 -6.453125 8.5625 -6.296875 8.53125 -6.140625 Z M 5.46875 -7.828125 C 4.695312 -7.828125 4.0625 -7.585938 3.5625 -7.109375 C 3.070312 -6.628906 2.691406 -5.863281 2.421875 -4.8125 C 3.035156 -4.75 3.585938 -4.71875 4.078125 -4.71875 C 5.109375 -4.71875 5.875 -4.847656 6.375 -5.109375 C 6.882812 -5.378906 7.179688 -5.765625 7.265625 -6.265625 C 7.285156 -6.359375 7.296875 -6.453125 7.296875 -6.546875 C 7.296875 -6.929688 7.132812 -7.238281 6.8125 -7.46875 C 6.488281 -7.707031 6.039062 -7.828125 5.46875 -7.828125 Z M 5.46875 -7.828125 "/></g></g></g><g fill="#000000" fill-opacity="1"><g transform="translate(193.976718, 305.771114)"><g/></g></g><g fill="#000000" fill-opacity="1"><g transform="translate(197.958675, 305.771114)"><g><path d="M 4.140625 0.171875 C 3.460938 0.171875 2.875 0.0390625 2.375 -0.21875 C 1.875 -0.488281 1.488281 -0.867188 1.21875 -1.359375 C 0.945312 -1.847656 0.8125 -2.4375 0.8125 -3.125 C 0.8125 -3.507812 0.859375 -3.925781 0.953125 -4.375 C 1.265625 -5.851562 1.84375 -6.976562 2.6875 -7.75 C 3.53125 -8.53125 4.601562 -8.921875 5.90625 -8.921875 C 6.582031 -8.921875 7.171875 -8.789062 7.671875 -8.53125 C 8.171875 -8.269531 8.554688 -7.890625 8.828125 -7.390625 C 9.097656 -6.898438 9.234375 -6.3125 9.234375 -5.625 C 9.234375 -5.226562 9.179688 -4.8125 9.078125 -4.375 C 8.765625 -2.894531 8.1875 -1.765625 7.34375 -0.984375 C 6.5 -0.210938 5.429688 0.171875 4.140625 0.171875 Z M 4.296875 -0.984375 C 5.171875 -0.984375 5.898438 -1.257812 6.484375 -1.8125 C 7.066406 -2.363281 7.476562 -3.21875 7.71875 -4.375 C 7.8125 -4.8125 7.859375 -5.191406 7.859375 -5.515625 C 7.859375 -6.265625 7.664062 -6.828125 7.28125 -7.203125 C 6.90625 -7.578125 6.394531 -7.765625 5.75 -7.765625 C 4.875 -7.765625 4.144531 -7.488281 3.5625 -6.9375 C 2.976562 -6.382812 2.5625 -5.53125 2.3125 -4.375 C 2.226562 -3.9375 2.1875 -3.554688 2.1875 -3.234375 C 2.1875 -2.484375 2.375 -1.921875 2.75 -1.546875 C 3.132812 -1.171875 3.648438 -0.984375 4.296875 -0.984375 Z M 4.296875 -0.984375 "/></g></g></g><g fill="#000000" fill-opacity="1"><g transform="translate(208.000822, 305.771114)"><g><path d="M 1.015625 0 L 2.65625 -7.703125 L 1.140625 -7.703125 L 1.359375 -8.765625 L 2.875 -8.765625 C 2.863281 -9.117188 2.894531 -9.476562 2.96875 -9.84375 C 3.15625 -10.71875 3.519531 -11.367188 4.0625 -11.796875 C 4.613281 -12.222656 5.367188 -12.4375 6.328125 -12.4375 C 6.785156 -12.4375 7.175781 -12.375 7.5 -12.25 C 7.820312 -12.132812 8.070312 -11.96875 8.25 -11.75 L 7.5625 -10.953125 L 7.390625 -10.921875 C 7.109375 -11.203125 6.6875 -11.34375 6.125 -11.34375 C 5.601562 -11.34375 5.1875 -11.207031 4.875 -10.9375 C 4.5625 -10.675781 4.351562 -10.300781 4.25 -9.8125 C 4.1875 -9.5 4.160156 -9.148438 4.171875 -8.765625 L 6.953125 -8.765625 L 6.734375 -7.703125 L 3.953125 -7.703125 L 2.3125 0 Z M 1.015625 0 "/></g></g></g><g fill="#000000" fill-opacity="1"><g transform="translate(214.23552, 305.771114)"><g/></g></g><g fill="#000000" fill-opacity="1"><g transform="translate(218.217477, 305.771114)"><g><path d="M 0.828125 0 L 3.296875 -11.59375 L 4.65625 -11.59375 L 3.59375 -6.53125 L 3.828125 -6.53125 L 9.4375 -11.59375 L 11.15625 -11.59375 L 11.109375 -11.40625 L 7.96875 -8.640625 L 4.8125 -5.875 L 9.125 -0.203125 L 9.09375 0 L 7.65625 0 C 6.664062 -1.289062 5.71875 -2.535156 4.8125 -3.734375 L 3.578125 -5.34375 L 3.328125 -5.34375 L 2.203125 0 Z M 0.828125 0 "/></g></g></g><g fill="#000000" fill-opacity="1"><g transform="translate(228.449997, 305.771114)"><g><path d="M 0.59375 0 L 2.453125 -8.75 L 3.6875 -8.75 L 3.390625 -7.375 L 3.546875 -7.34375 C 4.191406 -8.394531 5.171875 -8.921875 6.484375 -8.921875 C 7.296875 -8.921875 7.925781 -8.707031 8.375 -8.28125 C 8.820312 -7.863281 9.046875 -7.28125 9.046875 -6.53125 C 9.046875 -6.25 9.015625 -5.953125 8.953125 -5.640625 L 7.765625 0 L 6.46875 0 L 7.65625 -5.609375 C 7.707031 -5.847656 7.734375 -6.078125 7.734375 -6.296875 C 7.734375 -6.785156 7.585938 -7.15625 7.296875 -7.40625 C 7.003906 -7.664062 6.570312 -7.796875 6 -7.796875 C 5.238281 -7.796875 4.582031 -7.535156 4.03125 -7.015625 C 3.488281 -6.492188 3.09375 -5.648438 2.84375 -4.484375 L 1.890625 0 Z M 0.59375 0 "/></g></g></g><g fill="#000000" fill-opacity="1"><g transform="translate(238.523872, 305.771114)"><g><path d="M 4.140625 0.171875 C 3.460938 0.171875 2.875 0.0390625 2.375 -0.21875 C 1.875 -0.488281 1.488281 -0.867188 1.21875 -1.359375 C 0.945312 -1.847656 0.8125 -2.4375 0.8125 -3.125 C 0.8125 -3.507812 0.859375 -3.925781 0.953125 -4.375 C 1.265625 -5.851562 1.84375 -6.976562 2.6875 -7.75 C 3.53125 -8.53125 4.601562 -8.921875 5.90625 -8.921875 C 6.582031 -8.921875 7.171875 -8.789062 7.671875 -8.53125 C 8.171875 -8.269531 8.554688 -7.890625 8.828125 -7.390625 C 9.097656 -6.898438 9.234375 -6.3125 9.234375 -5.625 C 9.234375 -5.226562 9.179688 -4.8125 9.078125 -4.375 C 8.765625 -2.894531 8.1875 -1.765625 7.34375 -0.984375 C 6.5 -0.210938 5.429688 0.171875 4.140625 0.171875 Z M 4.296875 -0.984375 C 5.171875 -0.984375 5.898438 -1.257812 6.484375 -1.8125 C 7.066406 -2.363281 7.476562 -3.21875 7.71875 -4.375 C 7.8125 -4.8125 7.859375 -5.191406 7.859375 -5.515625 C 7.859375 -6.265625 7.664062 -6.828125 7.28125 -7.203125 C 6.90625 -7.578125 6.394531 -7.765625 5.75 -7.765625 C 4.875 -7.765625 4.144531 -7.488281 3.5625 -6.9375 C 2.976562 -6.382812 2.5625 -5.53125 2.3125 -4.375 C 2.226562 -3.9375 2.1875 -3.554688 2.1875 -3.234375 C 2.1875 -2.484375 2.375 -1.921875 2.75 -1.546875 C 3.132812 -1.171875 3.648438 -0.984375 4.296875 -0.984375 Z M 4.296875 -0.984375 "/></g></g></g><g fill="#000000" fill-opacity="1"><g transform="translate(248.566019, 305.771114)"><g><path d="M 3.46875 0 L 1.796875 0 L 1.484375 -8.75 L 2.71875 -8.75 L 2.84375 -1.5 L 3 -1.5 L 6.59375 -8.75 L 7.9375 -8.75 L 8.515625 -1.5 L 8.6875 -1.5 L 11.859375 -8.75 L 13.125 -8.75 L 9.203125 0 L 7.53125 0 L 6.9375 -6.796875 L 6.78125 -6.796875 Z M 3.46875 0 "/></g></g></g><g fill="#000000" fill-opacity="1"><g transform="translate(261.320974, 305.771114)"><g><path d="M 2.515625 0.15625 C 2.035156 0.15625 1.648438 0.015625 1.359375 -0.265625 C 1.078125 -0.554688 0.9375 -0.953125 0.9375 -1.453125 C 0.9375 -1.648438 0.957031 -1.863281 1 -2.09375 L 3.171875 -12.265625 L 4.46875 -12.265625 L 2.28125 -2.015625 C 2.257812 -1.878906 2.25 -1.769531 2.25 -1.6875 C 2.25 -1.457031 2.304688 -1.28125 2.421875 -1.15625 C 2.546875 -1.039062 2.710938 -0.984375 2.921875 -0.984375 C 3.078125 -0.984375 3.25 -1.015625 3.4375 -1.078125 L 3.546875 -1.046875 L 3.546875 -0.03125 C 3.304688 0.09375 2.960938 0.15625 2.515625 0.15625 Z M 2.515625 0.15625 "/></g></g></g><g fill="#000000" fill-opacity="1"><g transform="translate(266.080285, 305.771114)"><g><path d="M 8.53125 -6.140625 C 8.382812 -5.367188 7.953125 -4.742188 7.234375 -4.265625 C 6.523438 -3.796875 5.507812 -3.5625 4.1875 -3.5625 C 3.5625 -3.5625 2.90625 -3.613281 2.21875 -3.71875 C 2.195312 -3.550781 2.1875 -3.375 2.1875 -3.1875 C 2.1875 -2.476562 2.367188 -1.929688 2.734375 -1.546875 C 3.097656 -1.171875 3.625 -0.984375 4.3125 -0.984375 C 4.925781 -0.984375 5.4375 -1.097656 5.84375 -1.328125 C 6.257812 -1.566406 6.628906 -1.925781 6.953125 -2.40625 L 7.125 -2.40625 L 7.921875 -1.875 C 7.546875 -1.195312 7.046875 -0.6875 6.421875 -0.34375 C 5.796875 0 5.015625 0.171875 4.078125 0.171875 C 3.441406 0.171875 2.878906 0.0234375 2.390625 -0.265625 C 1.910156 -0.554688 1.539062 -0.96875 1.28125 -1.5 C 1.019531 -2.039062 0.890625 -2.671875 0.890625 -3.390625 C 0.890625 -3.828125 0.941406 -4.28125 1.046875 -4.75 C 1.234375 -5.632812 1.546875 -6.390625 1.984375 -7.015625 C 2.429688 -7.640625 2.96875 -8.113281 3.59375 -8.4375 C 4.226562 -8.757812 4.929688 -8.921875 5.703125 -8.921875 C 6.335938 -8.921875 6.867188 -8.8125 7.296875 -8.59375 C 7.722656 -8.382812 8.039062 -8.101562 8.25 -7.75 C 8.46875 -7.40625 8.578125 -7.023438 8.578125 -6.609375 C 8.578125 -6.453125 8.5625 -6.296875 8.53125 -6.140625 Z M 5.46875 -7.828125 C 4.695312 -7.828125 4.0625 -7.585938 3.5625 -7.109375 C 3.070312 -6.628906 2.691406 -5.863281 2.421875 -4.8125 C 3.035156 -4.75 3.585938 -4.71875 4.078125 -4.71875 C 5.109375 -4.71875 5.875 -4.847656 6.375 -5.109375 C 6.882812 -5.378906 7.179688 -5.765625 7.265625 -6.265625 C 7.285156 -6.359375 7.296875 -6.453125 7.296875 -6.546875 C 7.296875 -6.929688 7.132812 -7.238281 6.8125 -7.46875 C 6.488281 -7.707031 6.039062 -7.828125 5.46875 -7.828125 Z M 5.46875 -7.828125 "/></g></g></g><g fill="#000000" fill-opacity="1"><g transform="translate(275.408535, 305.771114)"><g><path d="M 3.734375 0.171875 C 3.171875 0.171875 2.671875 0.046875 2.234375 -0.203125 C 1.804688 -0.453125 1.46875 -0.828125 1.21875 -1.328125 C 0.96875 -1.828125 0.84375 -2.429688 0.84375 -3.140625 C 0.84375 -3.609375 0.90625 -4.117188 1.03125 -4.671875 C 1.21875 -5.585938 1.53125 -6.363281 1.96875 -7 C 2.40625 -7.632812 2.9375 -8.113281 3.5625 -8.4375 C 4.1875 -8.757812 4.882812 -8.921875 5.65625 -8.921875 C 6.21875 -8.921875 6.722656 -8.800781 7.171875 -8.5625 C 7.617188 -8.320312 7.9375 -7.96875 8.125 -7.5 L 8.296875 -7.53125 L 9.3125 -12.265625 L 10.59375 -12.265625 L 7.984375 0 L 6.703125 0 L 6.96875 -1.28125 L 6.8125 -1.3125 C 6.519531 -0.882812 6.101562 -0.53125 5.5625 -0.25 C 5.03125 0.03125 4.421875 0.171875 3.734375 0.171875 Z M 4.21875 -0.984375 C 4.75 -0.984375 5.238281 -1.097656 5.6875 -1.328125 C 6.144531 -1.566406 6.535156 -1.925781 6.859375 -2.40625 C 7.191406 -2.894531 7.4375 -3.5 7.59375 -4.21875 C 7.695312 -4.695312 7.75 -5.132812 7.75 -5.53125 C 7.75 -6.289062 7.5625 -6.851562 7.1875 -7.21875 C 6.820312 -7.582031 6.316406 -7.765625 5.671875 -7.765625 C 3.910156 -7.765625 2.789062 -6.632812 2.3125 -4.375 C 2.21875 -3.90625 2.171875 -3.488281 2.171875 -3.125 C 2.171875 -2.382812 2.347656 -1.84375 2.703125 -1.5 C 3.066406 -1.15625 3.570312 -0.984375 4.21875 -0.984375 Z M 4.21875 -0.984375 "/></g></g></g><g fill="#000000" fill-opacity="1"><g transform="translate(285.855231, 305.771114)"><g><path d="M 2.78125 3.71875 C 2.039062 3.71875 1.410156 3.625 0.890625 3.4375 C 0.378906 3.257812 -0.00390625 3.003906 -0.265625 2.671875 C -0.535156 2.335938 -0.671875 1.953125 -0.671875 1.515625 C -0.671875 1.390625 -0.65625 1.226562 -0.625 1.03125 C -0.53125 0.613281 -0.300781 0.265625 0.0625 -0.015625 C 0.4375 -0.296875 0.914062 -0.503906 1.5 -0.640625 L 1.546875 -0.796875 C 1.347656 -0.921875 1.195312 -1.0625 1.09375 -1.21875 C 1 -1.382812 0.953125 -1.582031 0.953125 -1.8125 C 0.953125 -1.9375 0.96875 -2.082031 1 -2.25 C 1.125 -2.84375 1.628906 -3.210938 2.515625 -3.359375 L 2.5625 -3.53125 C 1.914062 -3.914062 1.59375 -4.507812 1.59375 -5.3125 C 1.59375 -5.5625 1.625 -5.835938 1.6875 -6.140625 C 1.800781 -6.671875 2.015625 -7.144531 2.328125 -7.5625 C 2.648438 -7.988281 3.070312 -8.320312 3.59375 -8.5625 C 4.125 -8.800781 4.742188 -8.921875 5.453125 -8.921875 C 6.179688 -8.921875 6.765625 -8.757812 7.203125 -8.4375 C 7.421875 -8.644531 7.601562 -8.863281 7.75 -9.09375 C 7.894531 -9.320312 8.007812 -9.585938 8.09375 -9.890625 L 8.296875 -10 L 9.296875 -9.75 C 9.148438 -9.238281 8.941406 -8.832031 8.671875 -8.53125 C 8.398438 -8.226562 8.050781 -8.003906 7.625 -7.859375 L 7.59375 -7.6875 C 7.90625 -7.382812 8.0625 -6.992188 8.0625 -6.515625 C 8.0625 -6.347656 8.035156 -6.128906 7.984375 -5.859375 C 7.867188 -5.304688 7.628906 -4.8125 7.265625 -4.375 C 6.910156 -3.9375 6.46875 -3.59375 5.9375 -3.34375 C 5.40625 -3.09375 4.820312 -2.96875 4.1875 -2.96875 C 4.113281 -2.96875 3.984375 -2.972656 3.796875 -2.984375 C 3.578125 -2.992188 3.421875 -3 3.328125 -3 C 3.003906 -3 2.742188 -2.910156 2.546875 -2.734375 C 2.347656 -2.566406 2.25 -2.351562 2.25 -2.09375 C 2.25 -1.875 2.332031 -1.703125 2.5 -1.578125 C 2.675781 -1.460938 2.921875 -1.398438 3.234375 -1.390625 L 5.140625 -1.28125 C 5.898438 -1.25 6.472656 -1.066406 6.859375 -0.734375 C 7.253906 -0.410156 7.453125 0.03125 7.453125 0.59375 C 7.453125 0.78125 7.425781 0.976562 7.375 1.1875 C 7.257812 1.738281 7.046875 2.195312 6.734375 2.5625 C 6.421875 2.9375 5.945312 3.222656 5.3125 3.421875 C 4.675781 3.617188 3.832031 3.71875 2.78125 3.71875 Z M 4.421875 -4.078125 C 5.046875 -4.078125 5.5625 -4.238281 5.96875 -4.5625 C 6.375 -4.882812 6.640625 -5.335938 6.765625 -5.921875 C 6.804688 -6.128906 6.828125 -6.3125 6.828125 -6.46875 C 6.828125 -6.90625 6.6875 -7.238281 6.40625 -7.46875 C 6.132812 -7.695312 5.738281 -7.8125 5.21875 -7.8125 C 4.59375 -7.8125 4.082031 -7.644531 3.6875 -7.3125 C 3.289062 -6.988281 3.023438 -6.523438 2.890625 -5.921875 C 2.847656 -5.722656 2.828125 -5.546875 2.828125 -5.390625 C 2.828125 -4.972656 2.960938 -4.648438 3.234375 -4.421875 C 3.503906 -4.191406 3.898438 -4.078125 4.421875 -4.078125 Z M 2.78125 2.609375 C 3.4375 2.609375 4 2.539062 4.46875 2.40625 C 4.945312 2.28125 5.316406 2.109375 5.578125 1.890625 C 5.835938 1.671875 6 1.425781 6.0625 1.15625 C 6.09375 1.039062 6.109375 0.921875 6.109375 0.796875 C 6.109375 0.523438 6.003906 0.320312 5.796875 0.1875 C 5.597656 0.0507812 5.273438 -0.03125 4.828125 -0.0625 L 2.890625 -0.203125 C 2.835938 -0.203125 2.785156 -0.207031 2.734375 -0.21875 C 2.691406 -0.226562 2.644531 -0.234375 2.59375 -0.234375 C 2.019531 -0.222656 1.582031 -0.101562 1.28125 0.125 C 0.976562 0.351562 0.785156 0.671875 0.703125 1.078125 C 0.679688 1.160156 0.671875 1.253906 0.671875 1.359375 C 0.671875 1.753906 0.859375 2.0625 1.234375 2.28125 C 1.617188 2.5 2.132812 2.609375 2.78125 2.609375 Z M 2.78125 2.609375 "/></g></g></g><g fill="#000000" fill-opacity="1"><g transform="translate(294.818601, 305.771114)"><g><path d="M 8.53125 -6.140625 C 8.382812 -5.367188 7.953125 -4.742188 7.234375 -4.265625 C 6.523438 -3.796875 5.507812 -3.5625 4.1875 -3.5625 C 3.5625 -3.5625 2.90625 -3.613281 2.21875 -3.71875 C 2.195312 -3.550781 2.1875 -3.375 2.1875 -3.1875 C 2.1875 -2.476562 2.367188 -1.929688 2.734375 -1.546875 C 3.097656 -1.171875 3.625 -0.984375 4.3125 -0.984375 C 4.925781 -0.984375 5.4375 -1.097656 5.84375 -1.328125 C 6.257812 -1.566406 6.628906 -1.925781 6.953125 -2.40625 L 7.125 -2.40625 L 7.921875 -1.875 C 7.546875 -1.195312 7.046875 -0.6875 6.421875 -0.34375 C 5.796875 0 5.015625 0.171875 4.078125 0.171875 C 3.441406 0.171875 2.878906 0.0234375 2.390625 -0.265625 C 1.910156 -0.554688 1.539062 -0.96875 1.28125 -1.5 C 1.019531 -2.039062 0.890625 -2.671875 0.890625 -3.390625 C 0.890625 -3.828125 0.941406 -4.28125 1.046875 -4.75 C 1.234375 -5.632812 1.546875 -6.390625 1.984375 -7.015625 C 2.429688 -7.640625 2.96875 -8.113281 3.59375 -8.4375 C 4.226562 -8.757812 4.929688 -8.921875 5.703125 -8.921875 C 6.335938 -8.921875 6.867188 -8.8125 7.296875 -8.59375 C 7.722656 -8.382812 8.039062 -8.101562 8.25 -7.75 C 8.46875 -7.40625 8.578125 -7.023438 8.578125 -6.609375 C 8.578125 -6.453125 8.5625 -6.296875 8.53125 -6.140625 Z M 5.46875 -7.828125 C 4.695312 -7.828125 4.0625 -7.585938 3.5625 -7.109375 C 3.070312 -6.628906 2.691406 -5.863281 2.421875 -4.8125 C 3.035156 -4.75 3.585938 -4.71875 4.078125 -4.71875 C 5.109375 -4.71875 5.875 -4.847656 6.375 -5.109375 C 6.882812 -5.378906 7.179688 -5.765625 7.265625 -6.265625 C 7.285156 -6.359375 7.296875 -6.453125 7.296875 -6.546875 C 7.296875 -6.929688 7.132812 -7.238281 6.8125 -7.46875 C 6.488281 -7.707031 6.039062 -7.828125 5.46875 -7.828125 Z M 5.46875 -7.828125 "/></g></g></g><g fill="#000000" fill-opacity="1"><g transform="translate(304.160141, 305.771114)"><g/></g></g><g fill="#000000" fill-opacity="1"><g transform="translate(111.240232, 277.708604)"><g><path d="M 1.8125 -21.65625 L 1.8125 0 L 17.71875 0 L 17.71875 -4.875 L 9.5 -4.875 L 9.5 -8.53125 L 17.09375 -8.53125 L 17.09375 -13.40625 L 9.5 -13.40625 L 9.5 -16.78125 L 17.5625 -16.78125 L 17.5625 -21.65625 Z M 1.8125 -21.65625 "/></g></g></g><g fill="#000000" fill-opacity="1"><g transform="translate(129.737301, 277.708604)"><g><path d="M 12.5 -21.9375 L 12.5 -16.625 C 11.40625 -16.9375 10.59375 -17.09375 9.4375 -17.09375 C 4.3125 -17.09375 0.875 -13.625 0.875 -8.84375 C 0.875 -5.3125 2.875 -2.28125 5.5 -0.96875 C 6.8125 -0.3125 8.625 0 10.90625 0 L 19.1875 0 L 19.1875 -21.9375 Z M 7.5625 -8.53125 C 7.5625 -10.3125 8.875 -11.625 10.65625 -11.625 C 11.40625 -11.625 12.0625 -11.4375 12.5 -11.21875 L 12.5 -5.6875 C 11.78125 -5.53125 11.21875 -5.46875 10.78125 -5.46875 C 8.96875 -5.46875 7.5625 -6.65625 7.5625 -8.53125 Z M 7.5625 -8.53125 "/></g></g></g><g fill="#000000" fill-opacity="1"><g transform="translate(150.515264, 277.708604)"><g><path d="M 1.40625 -16.78125 L 1.40625 -7.03125 C 1.40625 -4.15625 1.875 -2.75 2.75 -1.625 C 3.625 -0.5 4.96875 0.3125 6.875 0.3125 C 8.90625 0.3125 10.59375 -0.53125 12.4375 -2.5625 C 12.9375 -0.625 13.96875 0.3125 16.53125 0.3125 L 19.28125 0.3125 L 20.90625 -4.28125 C 20.71875 -4.25 20.53125 -4.25 20.34375 -4.25 C 19.46875 -4.25 18.90625 -4.5625 18.90625 -6.28125 L 18.90625 -16.78125 L 12.21875 -16.78125 L 12.21875 -6.53125 C 11.5 -5.625 10.5625 -5.125 9.78125 -5.125 C 8.25 -5.125 8.09375 -6.40625 8.09375 -8.03125 L 8.09375 -16.78125 Z M 1.40625 -16.78125 "/></g></g></g><g fill="#000000" fill-opacity="1"><g transform="translate(171.668164, 277.708604)"><g><path d="M 0.3125 -21.65625 L 8.34375 0 L 14.0625 0 L 18.1875 -11.84375 L 22.3125 0 L 28.09375 0 L 36.0625 -21.65625 L 27.78125 -21.65625 L 24.84375 -12.46875 L 21.65625 -21.65625 L 14.75 -21.65625 L 11.5625 -12.46875 L 8.5625 -21.65625 Z M 0.3125 -21.65625 "/></g></g></g><g fill="#000000" fill-opacity="1"><g transform="translate(208.0374, 277.708604)"><g><path d="M 9.34375 -17.09375 C 6.625 -17.09375 4.1875 -16.28125 1.3125 -13.96875 L 1.3125 -8.25 C 3.71875 -10.25 6.1875 -11.5 8.1875 -11.5 C 9.46875 -11.5 9.75 -11.09375 9.75 -10.15625 L 9.75 -9.53125 C 9.15625 -9.21875 7.96875 -8.78125 6.125 -8.21875 C 2.40625 -7.0625 0.84375 -5.4375 0.84375 -3.4375 C 0.84375 -1.28125 2.59375 0.3125 6.0625 0.3125 C 7.8125 0.3125 9.25 -0.03125 10.9375 -1.03125 C 11.96875 0 13.46875 0.3125 15.375 0.3125 L 16.875 0.3125 L 18.4375 -4.25 C 18.25 -4.21875 18 -4.21875 17.875 -4.21875 C 16.75 -4.21875 16.4375 -4.6875 16.4375 -6.25 L 16.4375 -10.65625 C 16.4375 -12.96875 15.71875 -14.59375 14.34375 -15.59375 C 12.96875 -16.59375 11.28125 -17.09375 9.34375 -17.09375 Z M 6.6875 -4.09375 C 6.6875 -5.03125 7.25 -5.4375 8.09375 -5.84375 L 9.75 -6.65625 L 9.75 -4.28125 C 9.75 -4 9.75 -3.5625 9.875 -3.1875 C 9.15625 -2.8125 8.78125 -2.625 8.21875 -2.625 C 7.375 -2.625 6.6875 -3.25 6.6875 -4.09375 Z M 6.6875 -4.09375 "/></g></g></g><g fill="#000000" fill-opacity="1"><g transform="translate(226.25326, 277.708604)"><g><path d="M 0.5 -16.78125 L 6.9375 0 L 12.375 0 L 18.6875 -16.78125 L 12.65625 -16.78125 L 10.09375 -9.96875 L 7.46875 -16.78125 Z M 0.5 -16.78125 "/></g></g></g><g fill="#000000" fill-opacity="1"><g transform="translate(245.43772, 277.708604)"><g><path d="M 9.28125 -17.09375 C 4.40625 -17.09375 0.875 -13.5 0.875 -8.53125 C 0.875 -3.90625 4.09375 0.3125 10.3125 0.3125 C 12.90625 0.3125 14.875 -0.0625 17.46875 -1.25 L 17.46875 -5.625 C 15.46875 -4.625 13.46875 -4.1875 11.6875 -4.1875 C 9.125 -4.1875 7.5 -5.28125 7.3125 -7.46875 L 17.5 -7.46875 L 17.5 -8.3125 C 17.5 -12.34375 15.78125 -14.65625 13.28125 -16.09375 C 12.0625 -16.78125 10.71875 -17.09375 9.28125 -17.09375 Z M 7.3125 -10.09375 C 7.375 -12 8.15625 -12.90625 9.3125 -12.90625 C 10.65625 -12.90625 11.40625 -11.78125 11.40625 -10.09375 Z M 7.3125 -10.09375 "/></g></g></g></svg>